<?xml version="1.0" standalone="no"?>
<!DOCTYPE svg PUBLIC "-//W3C//DTD SVG 20010904//EN"
 "http://www.w3.org/TR/2001/REC-SVG-20010904/DTD/svg10.dtd">
<svg version="1.0" xmlns="http://www.w3.org/2000/svg"
 width="716.000000pt" height="716.000000pt" viewBox="0 0 716.000000 716.000000"
 preserveAspectRatio="xMidYMid meet">
<metadata>
Created by potrace 1.14, written by Peter Selinger 2001-2017
</metadata>
<g transform="translate(0.000000,716.000000) scale(0.100000,-0.100000)"
fill="#000000" stroke="none">
<path d="M0 3596 l0 -3446 218 0 c119 -1 561 -3 982 -5 1888 -10 3701 -17
4591 -19 l965 -1 41 27 c22 15 51 44 64 65 22 35 24 49 27 210 l4 172 -204 1
c-112 0 -725 3 -1363 6 -638 2 -1504 6 -1925 9 -421 2 -1024 5 -1340 7 -316 1
-486 4 -377 6 l197 2 0 1005 0 1005 -275 0 -275 0 0 -1008 0 -1008 -412 2
c-227 2 -419 3 -425 4 -10 0 -13 393 -13 1933 l0 1933 78 23 c42 12 80 21 83
19 3 -1 12 2 20 9 8 6 26 14 39 17 14 2 93 26 175 51 83 26 170 53 195 60 25
7 86 25 135 41 50 15 95 29 100 30 6 1 100 30 210 64 110 34 214 66 230 70 17
5 172 52 345 105 173 54 325 100 336 102 21 5 103 -15 244 -57 64 -20 359
-104 895 -255 149 -42 302 -85 340 -96 39 -11 93 -27 120 -35 28 -7 161 -45
296 -84 136 -38 263 -70 283 -70 19 0 59 9 88 21 29 11 100 36 158 54 58 18
200 63 315 100 116 37 215 68 220 69 10 2 345 110 455 146 109 36 385 122 387
121 2 0 27 8 55 18 56 20 376 123 393 127 41 8 315 100 335 113 110 68 130
213 42 311 -41 46 -96 69 -157 66 -35 -2 -283 -75 -370 -109 -16 -6 -35 -12
-41 -13 -6 -1 -109 -33 -230 -72 -219 -70 -459 -146 -824 -262 -107 -34 -220
-70 -250 -80 -99 -33 -385 -123 -400 -126 -8 -2 -55 -17 -104 -33 l-90 -30
-368 105 c-202 58 -376 107 -385 109 -10 3 -40 11 -68 19 -126 36 -555 159
-600 171 -27 7 -194 55 -370 105 -258 74 -330 91 -370 87 -27 -2 -162 -38
-300 -81 -137 -43 -270 -84 -295 -91 -25 -7 -99 -30 -165 -50 -66 -21 -124
-38 -130 -39 -5 -2 -57 -18 -115 -36 -58 -19 -107 -34 -110 -35 -50 -13 -107
-30 -158 -46 -34 -12 -68 -22 -75 -23 -7 -1 -16 -4 -22 -7 -5 -4 -23 -9 -40
-13 -16 -4 -79 -22 -140 -41 -295 -92 -373 -115 -383 -115 -9 0 -12 268 -14
988 l-3 988 -27 41 c-15 22 -44 51 -65 64 -35 22 -49 24 -210 27 l-173 4 0
-3446z m1397 -2972 c-3 -3 -12 -4 -19 -1 -8 3 -5 6 6 6 11 1 17 -2 13 -5z m46
-1 c-7 -2 -19 -2 -25 0 -7 3 -2 5 12 5 14 0 19 -2 13 -5z"/>
<path d="M3960 2190 l0 -1560 275 0 275 0 0 1560 0 1560 -275 0 -275 0 0
-1560z"/>
<path d="M2650 1995 l0 -1365 275 0 275 0 0 1365 0 1365 -275 0 -275 0 0
-1365z"/>
<path d="M5280 1815 l0 -1195 275 0 275 0 0 1195 0 1195 -275 0 -275 0 0
-1195z"/>
</g>
</svg>
